<!DOCTYPE svg PUBLIC "-//W3C//DTD SVG 20010904//EN" "http://www.w3.org/TR/2001/REC-SVG-20010904/DTD/svg10.dtd">
<svg version="1.0" xmlns="http://www.w3.org/2000/svg" width="148px" height="149px" viewBox="0 0 1480 1490" preserveAspectRatio="xMidYMid meet">
<g id="layer101" fill="#000000" stroke="none">
 <path d="M1146 1251 l-238 -238 -67 38 c-84 49 -174 72 -281 72 -274 0 -500 -194 -547 -470 -13 -80 -13 -99 1 -178 21 -124 70 -220 155 -304 112 -112 239 -164 396 -164 157 0 284 52 396 164 185 184 218 489 75 696 l-33 48 241 242 241 243 -45 45 c-24 25 -47 45 -50 45 -3 0 -112 -107 -244 -239z m-394 -303 c93 -47 149 -103 196 -197 36 -73 37 -78 37 -185 0 -104 -2 -115 -32 -178 -44 -94 -109 -160 -202 -206 -73 -36 -78 -37 -186 -37 -108 0 -113 1 -186 37 -93 46 -158 112 -202 206 -30 63 -32 74 -32 177 0 103 2 114 32 177 53 113 137 187 258 231 38 13 73 17 146 14 88 -2 103 -6 171 -39z"/>
 </g>

</svg>